<svg width="126" height="126" viewBox="0 0 126 126" fill="none" xmlns="http://www.w3.org/2000/svg">
<path d="M124.32 58.9475C124.853 59.4794 125.275 60.111 125.563 60.8063C125.852 61.5015 126 62.2467 126 62.9993C126 63.7519 125.852 64.4972 125.563 65.1924C125.275 65.8876 124.853 66.5193 124.32 67.0511L67.0511 124.32C66.5193 124.853 65.8876 125.275 65.1924 125.563C64.4972 125.852 63.7519 126 62.9993 126C62.2467 126 61.5015 125.852 60.8063 125.563C60.111 125.275 59.4794 124.853 58.9475 124.32L1.67831 67.0511C0.603706 65.9765 0 64.5191 0 62.9993C0 61.4796 0.603706 60.0221 1.67831 58.9475C2.75291 57.8729 4.21039 57.2692 5.73011 57.2692C7.24983 57.2692 8.7073 57.8729 9.78191 58.9475L62.9993 112.172L116.217 58.9475C116.749 58.4151 117.38 57.9927 118.075 57.7044C118.771 57.4162 119.516 57.2679 120.269 57.2679C121.021 57.2679 121.766 57.4162 122.462 57.7044C123.157 57.9927 123.788 58.4151 124.32 58.9475ZM58.9475 67.0511C59.4794 67.5836 60.111 68.006 60.8063 68.2942C61.5015 68.5824 62.2467 68.7308 62.9993 68.7308C63.7519 68.7308 64.4972 68.5824 65.1924 68.2942C65.8876 68.006 66.5193 67.5836 67.0511 67.0511L124.32 9.78191C125.395 8.7073 125.999 7.24983 125.999 5.73011C125.999 4.21039 125.395 2.75291 124.32 1.67831C123.246 0.603706 121.788 2.99573e-08 120.269 0C118.749 -2.99573e-08 117.291 0.603706 116.217 1.67831L62.9993 54.9029L9.78191 1.67831C8.7073 0.603706 7.24983 0 5.73011 0C4.21039 0 2.75291 0.603706 1.67831 1.67831C0.603706 2.75291 0 4.21039 0 5.73011C0 7.24983 0.603706 8.7073 1.67831 9.78191L58.9475 67.0511Z" fill="white"/>
</svg>
