<svg width="106" height="126" viewBox="0 0 106 126" fill="none" xmlns="http://www.w3.org/2000/svg">
<path d="M104.591 35.3406L70.8634 1.4175C70.4156 0.967612 69.8841 0.610867 69.2992 0.367648C68.7143 0.124429 68.0875 -0.000499085 67.4545 1.49842e-06H9.63636C7.08064 1.49842e-06 4.62959 1.02115 2.82243 2.83881C1.01526 4.65647 0 7.12175 0 9.69231V116.308C0 118.878 1.01526 121.344 2.82243 123.161C4.62959 124.979 7.08064 126 9.63636 126H96.3636C98.9194 126 101.37 124.979 103.178 123.161C104.985 121.344 106 118.878 106 116.308V38.7692C106.001 38.1326 105.876 37.5022 105.634 36.9139C105.393 36.3256 105.038 35.791 104.591 35.3406ZM72.2727 16.5436L89.5519 33.9231H72.2727V16.5436ZM96.3636 116.308H9.63636V9.69231H62.6364V38.7692C62.6364 40.0545 63.144 41.2871 64.0476 42.196C64.9512 43.1048 66.1767 43.6154 67.4545 43.6154H96.3636V116.308ZM70.8634 69.2636C71.3111 69.7139 71.6662 70.2484 71.9084 70.8367C72.1507 71.425 72.2754 72.0555 72.2754 72.6923C72.2754 73.3291 72.1507 73.9596 71.9084 74.5479C71.6662 75.1362 71.3111 75.6707 70.8634 76.121C70.4158 76.5712 69.8843 76.9284 69.2994 77.1721C68.7145 77.4157 68.0876 77.5412 67.4545 77.5412C66.8215 77.5412 66.1946 77.4157 65.6097 77.1721C65.0248 76.9284 64.4933 76.5712 64.0457 76.121L57.8182 69.8512V96.9231C57.8182 98.2084 57.3106 99.441 56.407 100.35C55.5034 101.259 54.2779 101.769 53 101.769C51.7221 101.769 50.4966 101.259 49.593 100.35C48.6894 99.441 48.1818 98.2084 48.1818 96.9231V69.8512L41.9543 76.121C41.5067 76.5712 40.9752 76.9284 40.3903 77.1721C39.8054 77.4157 39.1785 77.5412 38.5455 77.5412C37.9124 77.5412 37.2855 77.4157 36.7006 77.1721C36.1157 76.9284 35.5842 76.5712 35.1366 76.121C34.6889 75.6707 34.3338 75.1362 34.0916 74.5479C33.8493 73.9596 33.7246 73.3291 33.7246 72.6923C33.7246 72.0555 33.8493 71.425 34.0916 70.8367C34.3338 70.2484 34.6889 69.7139 35.1366 69.2636L49.5911 54.7252C50.0386 54.2746 50.57 53.9172 51.1549 53.6733C51.7398 53.4294 52.3668 53.3039 53 53.3039C53.6332 53.3039 54.2602 53.4294 54.8451 53.6733C55.43 53.9172 55.9614 54.2746 56.4089 54.7252L70.8634 69.2636Z" fill="white"/>
</svg>
