<svg width="137" height="126" viewBox="0 0 137 126" fill="none" xmlns="http://www.w3.org/2000/svg">
<path d="M137 15.7448V47.2463C137 48.6387 136.445 49.9741 135.457 50.9587C134.469 51.9433 133.128 52.4965 131.731 52.4965H100.116C98.7189 52.4965 97.3786 51.9433 96.3905 50.9587C95.4024 49.9741 94.8472 48.6387 94.8472 47.2463C94.8472 45.8538 95.4024 44.5184 96.3905 43.5338C97.3786 42.5492 98.7189 41.996 100.116 41.996H118.163L100.65 26.009L100.485 25.8515C93.1616 18.5569 83.8432 13.5742 73.6941 11.5259C63.5451 9.47757 53.0153 10.4544 43.4201 14.3345C33.825 18.2145 25.59 24.8256 19.7437 33.3421C13.8975 41.8585 10.6993 51.9025 10.5487 62.2196C10.398 72.5366 13.3016 82.6691 18.8967 91.3514C24.4918 100.034 32.5303 106.881 42.0081 111.037C51.4859 115.194 61.9827 116.476 72.1873 114.722C82.3919 112.969 91.8518 108.259 99.3852 101.179C100.401 100.222 101.757 99.706 103.154 99.7448C104.552 99.7835 105.877 100.374 106.838 101.386C107.798 102.398 108.316 103.749 108.277 105.142C108.239 106.534 107.646 107.855 106.63 108.812C94.9162 119.882 79.3769 126.036 63.2326 126H62.3632C52.0077 125.859 41.8456 123.185 32.77 118.214C23.6944 113.243 15.9832 106.126 10.3142 97.4901C4.64513 88.854 1.1918 78.9626 0.257719 68.6853C-0.676364 58.408 0.937394 48.0593 4.95715 38.5489C8.97691 29.0386 15.2796 20.6577 23.3113 14.1428C31.3429 7.62794 40.8577 3.1786 51.0192 1.18586C61.1807 -0.806888 71.678 -0.282034 81.5883 2.71429C91.4986 5.71061 100.519 11.0867 107.855 18.3699L126.462 35.302V15.7448C126.462 14.3524 127.017 13.0169 128.005 12.0323C128.993 11.0477 130.333 10.4946 131.731 10.4946C133.128 10.4946 134.469 11.0477 135.457 12.0323C136.445 13.0169 137 14.3524 137 15.7448Z" fill="white"/>
</svg>
